<svg width="100" height="14" viewBox="0 0 100 14" fill="none" xmlns="http://www.w3.org/2000/svg">
<path d="M5.98793 0.599032V13.6899H3.61648V2.90656H3.53977L0.477983 4.86253V2.68923L3.73153 0.599032H5.98793ZM11.4467 10.609L11.4403 7.81565H11.8111L15.3395 3.87176H18.0433L13.7031 8.70415H13.2237L11.4467 10.609ZM9.33736 13.6899V0.599032H11.6513V13.6899H9.33736ZM15.4993 13.6899L12.3033 9.2219L13.8629 7.59193L18.267 13.6899H15.4993ZM22.954 12.9165V4.06991H24.9611V12.9165H22.954ZM19.5343 9.49676V7.48966H28.3809V9.49676H19.5343Z" fill="white"/>
<path d="M39.2997 13.6899V2.05358H43.2315C44.1406 2.05358 44.8868 2.20888 45.4702 2.51949C46.0535 2.8263 46.4853 3.24865 46.7656 3.78653C47.0459 4.32441 47.1861 4.93615 47.1861 5.62176C47.1861 6.30737 47.0459 6.91532 46.7656 7.44562C46.4853 7.97593 46.0554 8.39259 45.4759 8.69562C44.8963 8.99487 44.1558 9.14449 43.2543 9.14449H40.0724V7.87176H43.2088C43.83 7.87176 44.33 7.78085 44.7088 7.59903C45.0914 7.41721 45.3679 7.15964 45.5384 6.8263C45.7126 6.48918 45.7997 6.08767 45.7997 5.62176C45.7997 5.15585 45.7126 4.74865 45.5384 4.40017C45.3641 4.05168 45.0857 3.78274 44.7031 3.59335C44.3205 3.40017 43.8149 3.30358 43.1861 3.30358H40.7088V13.6899H39.2997ZM44.777 8.46267L47.6406 13.6899H46.0043L43.1861 8.46267H44.777ZM52.9176 13.8718C52.0767 13.8718 51.3513 13.6862 50.7415 13.3149C50.1354 12.9399 49.6676 12.4172 49.3381 11.7468C49.0123 11.0725 48.8494 10.2884 48.8494 9.39449C48.8494 8.50055 49.0123 7.71267 49.3381 7.03085C49.6676 6.34524 50.1259 5.81115 50.7131 5.42858C51.304 5.04221 51.9934 4.84903 52.7812 4.84903C53.2358 4.84903 53.6847 4.92479 54.1278 5.0763C54.571 5.22782 54.9744 5.47403 55.3381 5.81494C55.7017 6.15206 55.9915 6.59903 56.2074 7.15585C56.4233 7.71267 56.5312 8.39827 56.5312 9.21267V9.78085H49.804V8.62176H55.1676C55.1676 8.12934 55.0691 7.68994 54.8722 7.30358C54.679 6.91721 54.4025 6.61229 54.0426 6.3888C53.6866 6.16532 53.2661 6.05358 52.7812 6.05358C52.2472 6.05358 51.785 6.18615 51.3949 6.4513C51.0085 6.71267 50.7112 7.05358 50.5028 7.47403C50.2945 7.89449 50.1903 8.34524 50.1903 8.8263V9.59903C50.1903 10.2581 50.304 10.8168 50.5312 11.2752C50.7623 11.7297 51.0824 12.0763 51.4915 12.3149C51.9006 12.5498 52.3759 12.6672 52.9176 12.6672C53.2699 12.6672 53.5881 12.618 53.8722 12.5195C54.16 12.4172 54.4081 12.2657 54.6165 12.0649C54.8248 11.8604 54.9858 11.6066 55.0994 11.3036L56.3949 11.6672C56.2585 12.1066 56.0294 12.493 55.7074 12.8263C55.3854 13.1559 54.9877 13.4134 54.5142 13.599C54.0407 13.7809 53.5085 13.8718 52.9176 13.8718ZM65.4418 4.96267L62.2145 13.6899H60.8509L57.6236 4.96267H59.0781L61.4872 11.9172H61.5781L63.9872 4.96267H65.4418ZM67.2116 13.6899V4.96267H68.5526V13.6899H67.2116ZM67.8935 3.50812C67.6321 3.50812 67.4067 3.41911 67.2173 3.24108C67.0317 3.06305 66.9389 2.84903 66.9389 2.59903C66.9389 2.34903 67.0317 2.13502 67.2173 1.95699C67.4067 1.77896 67.6321 1.68994 67.8935 1.68994C68.1548 1.68994 68.3783 1.77896 68.5639 1.95699C68.7533 2.13502 68.848 2.34903 68.848 2.59903C68.848 2.84903 68.7533 3.06305 68.5639 3.24108C68.3783 3.41911 68.1548 3.50812 67.8935 3.50812ZM74.6676 13.8718C73.8267 13.8718 73.1013 13.6862 72.4915 13.3149C71.8854 12.9399 71.4176 12.4172 71.0881 11.7468C70.7623 11.0725 70.5994 10.2884 70.5994 9.39449C70.5994 8.50055 70.7623 7.71267 71.0881 7.03085C71.4176 6.34524 71.8759 5.81115 72.4631 5.42858C73.054 5.04221 73.7434 4.84903 74.5312 4.84903C74.9858 4.84903 75.4347 4.92479 75.8778 5.0763C76.321 5.22782 76.7244 5.47403 77.0881 5.81494C77.4517 6.15206 77.7415 6.59903 77.9574 7.15585C78.1733 7.71267 78.2812 8.39827 78.2812 9.21267V9.78085H71.554V8.62176H76.9176C76.9176 8.12934 76.8191 7.68994 76.6222 7.30358C76.429 6.91721 76.1525 6.61229 75.7926 6.3888C75.4366 6.16532 75.0161 6.05358 74.5312 6.05358C73.9972 6.05358 73.535 6.18615 73.1449 6.4513C72.7585 6.71267 72.4612 7.05358 72.2528 7.47403C72.0445 7.89449 71.9403 8.34524 71.9403 8.8263V9.59903C71.9403 10.2581 72.054 10.8168 72.2812 11.2752C72.5123 11.7297 72.8324 12.0763 73.2415 12.3149C73.6506 12.5498 74.1259 12.6672 74.6676 12.6672C75.0199 12.6672 75.3381 12.618 75.6222 12.5195C75.91 12.4172 76.1581 12.2657 76.3665 12.0649C76.5748 11.8604 76.7358 11.6066 76.8494 11.3036L78.1449 11.6672C78.0085 12.1066 77.7794 12.493 77.4574 12.8263C77.1354 13.1559 76.7377 13.4134 76.2642 13.599C75.7907 13.7809 75.2585 13.8718 74.6676 13.8718ZM82.2983 13.6899L79.6392 4.96267H81.0483L82.9347 11.6445H83.0256L84.8892 4.96267H86.321L88.1619 11.6218H88.2528L90.1392 4.96267H91.5483L88.8892 13.6899H87.571L85.6619 6.9854H85.5256L83.6165 13.6899H82.2983ZM99.5028 6.91721L98.2983 7.25812C98.2225 7.05737 98.1108 6.86229 97.9631 6.6729C97.8191 6.47971 97.6222 6.32062 97.3722 6.19562C97.1222 6.07062 96.8021 6.00812 96.4119 6.00812C95.8778 6.00812 95.4328 6.13123 95.0767 6.37744C94.7244 6.61987 94.5483 6.92858 94.5483 7.30358C94.5483 7.63691 94.6695 7.90017 94.9119 8.09335C95.1544 8.28653 95.5331 8.44752 96.0483 8.5763L97.3438 8.89449C98.1241 9.08388 98.7055 9.37365 99.0881 9.7638C99.4706 10.1502 99.6619 10.6483 99.6619 11.2581C99.6619 11.7581 99.518 12.2051 99.2301 12.599C98.946 12.993 98.5483 13.3036 98.0369 13.5309C97.5256 13.7581 96.9309 13.8718 96.2528 13.8718C95.3627 13.8718 94.6259 13.6786 94.0426 13.2922C93.4593 12.9059 93.09 12.3415 92.9347 11.599L94.2074 11.2809C94.3286 11.7505 94.5578 12.1028 94.8949 12.3377C95.2358 12.5725 95.6809 12.6899 96.2301 12.6899C96.8551 12.6899 97.3513 12.5574 97.7188 12.2922C98.09 12.0233 98.2756 11.7013 98.2756 11.3263C98.2756 11.0233 98.1695 10.7695 97.9574 10.5649C97.7453 10.3566 97.4195 10.2013 96.9801 10.099L95.5256 9.75812C94.7263 9.56873 94.1392 9.27517 93.7642 8.87744C93.393 8.47593 93.2074 7.97403 93.2074 7.37176C93.2074 6.87934 93.3456 6.44373 93.6222 6.06494C93.9025 5.68615 94.2831 5.3888 94.7642 5.1729C95.2491 4.95699 95.7983 4.84903 96.4119 4.84903C97.2756 4.84903 97.9536 5.03843 98.446 5.41721C98.9422 5.796 99.2945 6.296 99.5028 6.91721Z" fill="#939393"/>
</svg>
