<svg width="155" height="28" viewBox="0 0 155 28" fill="none" xmlns="http://www.w3.org/2000/svg">
<path d="M9.549 7.1169C9.849 6.1959 11.152 6.1959 11.451 7.1169L12.521 10.4089C12.5864 10.6094 12.7135 10.7841 12.8841 10.908C13.0547 11.0319 13.2601 11.0987 13.471 11.0989H16.933C17.902 11.0989 18.304 12.3389 17.521 12.9089L14.721 14.9429C14.55 15.0669 14.4227 15.2419 14.3573 15.4427C14.2919 15.6436 14.2918 15.86 14.357 16.0609L15.427 19.3529C15.727 20.2739 14.672 21.0409 13.887 20.4709L11.087 18.4369C10.9162 18.3129 10.7106 18.2461 10.4995 18.2461C10.2884 18.2461 10.0828 18.3129 9.912 18.4369L7.112 20.4709C6.328 21.0409 5.274 20.2739 5.573 19.3529L6.643 16.0609C6.70818 15.86 6.70806 15.6436 6.64267 15.4427C6.57728 15.2419 6.44997 15.0669 6.279 14.9429L3.48 12.9099C2.697 12.3399 3.1 11.0999 4.068 11.0999H7.529C7.74005 11.1 7.94571 11.0332 8.11653 10.9093C8.28735 10.7854 8.41458 10.6105 8.48 10.4099L9.55 7.1179L9.549 7.1169Z" fill="#FFAC0A"/>
<path d="M31.549 7.1169C31.849 6.1959 33.152 6.1959 33.451 7.1169L34.521 10.4089C34.5864 10.6094 34.7134 10.7841 34.8841 10.908C35.0547 11.0319 35.2601 11.0987 35.471 11.0989H38.933C39.902 11.0989 40.304 12.3389 39.521 12.9089L36.721 14.9429C36.55 15.0669 36.4227 15.2419 36.3573 15.4427C36.2919 15.6436 36.2918 15.86 36.357 16.0609L37.427 19.3529C37.727 20.2739 36.672 21.0409 35.887 20.4709L33.087 18.4369C32.9162 18.3129 32.7106 18.2461 32.4995 18.2461C32.2884 18.2461 32.0828 18.3129 31.912 18.4369L29.112 20.4709C28.328 21.0409 27.274 20.2739 27.573 19.3529L28.643 16.0609C28.7082 15.86 28.7081 15.6436 28.6427 15.4427C28.5773 15.2419 28.45 15.0669 28.279 14.9429L25.48 12.9099C24.697 12.3399 25.1 11.0999 26.068 11.0999H29.529C29.74 11.1 29.9457 11.0332 30.1165 10.9093C30.2873 10.7854 30.4146 10.6105 30.48 10.4099L31.55 7.1179L31.549 7.1169Z" fill="#FFAC0A"/>
<path d="M53.549 7.1169C53.849 6.1959 55.152 6.1959 55.451 7.1169L56.521 10.4089C56.5864 10.6094 56.7134 10.7841 56.8841 10.908C57.0547 11.0319 57.2601 11.0987 57.471 11.0989H60.933C61.902 11.0989 62.304 12.3389 61.521 12.9089L58.721 14.9429C58.55 15.0669 58.4227 15.2419 58.3573 15.4427C58.2919 15.6436 58.2918 15.86 58.357 16.0609L59.427 19.3529C59.727 20.2739 58.672 21.0409 57.887 20.4709L55.087 18.4369C54.9162 18.3129 54.7106 18.2461 54.4995 18.2461C54.2884 18.2461 54.0828 18.3129 53.912 18.4369L51.112 20.4709C50.328 21.0409 49.274 20.2739 49.573 19.3529L50.643 16.0609C50.7082 15.86 50.7081 15.6436 50.6427 15.4427C50.5773 15.2419 50.45 15.0669 50.279 14.9429L47.48 12.9099C46.697 12.3399 47.1 11.0999 48.068 11.0999H51.529C51.74 11.1 51.9457 11.0332 52.1165 10.9093C52.2873 10.7854 52.4146 10.6105 52.48 10.4099L53.55 7.1179L53.549 7.1169Z" fill="#FFAC0A"/>
<path d="M75.549 7.1169C75.849 6.1959 77.152 6.1959 77.451 7.1169L78.521 10.4089C78.5864 10.6094 78.7134 10.7841 78.8841 10.908C79.0547 11.0319 79.2601 11.0987 79.471 11.0989H82.933C83.902 11.0989 84.304 12.3389 83.521 12.9089L80.721 14.9429C80.55 15.0669 80.4227 15.2419 80.3573 15.4427C80.2919 15.6436 80.2918 15.86 80.357 16.0609L81.427 19.3529C81.727 20.2739 80.672 21.0409 79.887 20.4709L77.087 18.4369C76.9162 18.3129 76.7106 18.2461 76.4995 18.2461C76.2884 18.2461 76.0828 18.3129 75.912 18.4369L73.112 20.4709C72.328 21.0409 71.274 20.2739 71.573 19.3529L72.643 16.0609C72.7082 15.86 72.7081 15.6436 72.6427 15.4427C72.5773 15.2419 72.45 15.0669 72.279 14.9429L69.48 12.9099C68.697 12.3399 69.1 11.0999 70.068 11.0999H73.529C73.74 11.1 73.9457 11.0332 74.1165 10.9093C74.2873 10.7854 74.4146 10.6105 74.48 10.4099L75.55 7.1179L75.549 7.1169Z" fill="#FFAC0A"/>
<path d="M97.549 7.1169C97.849 6.1959 99.152 6.1959 99.451 7.1169L100.521 10.4089C100.586 10.6094 100.713 10.7841 100.884 10.908C101.055 11.0319 101.26 11.0987 101.471 11.0989H104.933C105.902 11.0989 106.304 12.3389 105.521 12.9089L102.721 14.9429C102.55 15.0669 102.423 15.2419 102.357 15.4427C102.292 15.6436 102.292 15.86 102.357 16.0609L103.427 19.3529C103.727 20.2739 102.672 21.0409 101.887 20.4709L99.087 18.4369C98.9162 18.3129 98.7106 18.2461 98.4995 18.2461C98.2884 18.2461 98.0828 18.3129 97.912 18.4369L95.112 20.4709C94.328 21.0409 93.274 20.2739 93.573 19.3529L94.643 16.0609C94.7082 15.86 94.7081 15.6436 94.6427 15.4427C94.5773 15.2419 94.45 15.0669 94.279 14.9429L91.48 12.9099C90.697 12.3399 91.1 11.0999 92.068 11.0999H95.529C95.74 11.1 95.9457 11.0332 96.1165 10.9093C96.2873 10.7854 96.4146 10.6105 96.48 10.4099L97.55 7.1179L97.549 7.1169Z" fill="#FFAC0A"/>
<mask id="mask0_1_490" style="mask-type:alpha" maskUnits="userSpaceOnUse" x="91" y="6" width="15" height="15">
<path d="M97.549 7.1169C97.849 6.1959 99.152 6.1959 99.451 7.1169L100.521 10.4089C100.586 10.6094 100.713 10.7841 100.884 10.908C101.055 11.0319 101.26 11.0987 101.471 11.0989H104.933C105.902 11.0989 106.304 12.3389 105.521 12.9089L102.721 14.9429C102.55 15.0669 102.423 15.2419 102.357 15.4427C102.292 15.6436 102.292 15.86 102.357 16.0609L103.427 19.3529C103.727 20.2739 102.672 21.0409 101.887 20.4709L99.087 18.4369C98.9162 18.3129 98.7106 18.2461 98.4995 18.2461C98.2884 18.2461 98.0828 18.3129 97.912 18.4369L95.112 20.4709C94.328 21.0409 93.274 20.2739 93.573 19.3529L94.643 16.0609C94.7082 15.86 94.7081 15.6436 94.6427 15.4427C94.5773 15.2419 94.45 15.0669 94.279 14.9429L91.48 12.9099C90.697 12.3399 91.1 11.0999 92.068 11.0999H95.529C95.74 11.1 95.9457 11.0332 96.1165 10.9093C96.2873 10.7854 96.4146 10.6105 96.48 10.4099L97.55 7.1179L97.549 7.1169Z" fill="#FFAC0A"/>
</mask>
<g mask="url(#mask0_1_490)">
<rect x="96.5" y="6" width="14" height="16" fill="white"/>
</g>
<path d="M115.484 18.1331V16.5351L121.141 7.59903H122.401V9.9513H121.602L117.555 16.3561V16.4584H125.309V18.1331H115.484ZM121.691 20.6899V17.6473L121.704 16.9186V7.59903H123.577V20.6899H121.691ZM128.329 20.8114C127.98 20.8114 127.679 20.6878 127.428 20.4407C127.176 20.1892 127.051 19.8867 127.051 19.533C127.051 19.1835 127.176 18.8853 127.428 18.6381C127.679 18.3867 127.98 18.261 128.329 18.261C128.679 18.261 128.979 18.3867 129.23 18.6381C129.482 18.8853 129.608 19.1835 129.608 19.533C129.608 19.7674 129.548 19.9826 129.429 20.1786C129.314 20.3703 129.16 20.5237 128.968 20.6388C128.777 20.7539 128.564 20.8114 128.329 20.8114ZM132.142 20.6899V19.2581L136.572 14.6686C137.045 14.1701 137.435 13.7333 137.741 13.3583C138.053 12.979 138.285 12.6189 138.438 12.278C138.592 11.9371 138.668 11.5749 138.668 11.1914C138.668 10.7567 138.566 10.3817 138.362 10.0664C138.157 9.74676 137.878 9.50173 137.524 9.33128C137.17 9.15656 136.772 9.0692 136.329 9.0692C135.86 9.0692 135.451 9.16508 135.102 9.35684C134.752 9.54861 134.484 9.8192 134.296 10.1686C134.109 10.5181 134.015 10.9272 134.015 11.3959H132.129C132.129 10.599 132.313 9.9023 132.679 9.30571C133.045 8.70912 133.548 8.24676 134.188 7.91863C134.827 7.58625 135.553 7.42005 136.367 7.42005C137.19 7.42005 137.914 7.58412 138.54 7.91224C139.171 8.23611 139.663 8.67929 140.017 9.24179C140.371 9.80003 140.548 10.4307 140.548 11.1338C140.548 11.6196 140.456 12.0948 140.273 12.5593C140.094 13.0237 139.781 13.5415 139.333 14.1125C138.886 14.6793 138.263 15.3675 137.467 16.1772L134.865 18.9002V18.996H140.759V20.6899H132.142Z" fill="#939393"/>
<path d="M154 0.689941V27.6899H155V0.689941H154Z" fill="#E4E4E4" mask="url(#path-1-inside-1_1_490)"/>
</svg>
