<svg width="102" height="102" viewBox="0 0 102 102" fill="none" xmlns="http://www.w3.org/2000/svg">
<path d="M23.0767 79.3581H19.0512C16.9159 79.3581 14.868 78.5099 13.3581 77C11.8482 75.4901 11 73.4423 11 71.307V31.0512C11 28.9159 11.8482 26.868 13.3581 25.3581C14.868 23.8482 16.9159 23 19.0512 23H83.4605C85.5958 23 87.6436 23.8482 89.1535 25.3581C90.6634 26.868 91.5116 28.9159 91.5116 31.0512V71.307C91.5116 73.4423 90.6634 75.4901 89.1535 77C87.6436 78.5099 85.5958 79.3581 83.4605 79.3581H79.4349" stroke="#E95266" stroke-width="8" stroke-linecap="round" stroke-linejoin="round"/>
<path d="M21.1819 68.2461L26.052 37.5999H32.8623L30.9222 49.7554H43.5528L45.493 37.5999H52.3032L47.4331 68.2461H40.6228L42.6026 55.6946H29.9719L27.9922 68.2461H21.1819ZM52.8885 68.2461L57.7586 37.5999H66.5486C71.6959 37.5999 75.6818 38.7745 78.5062 41.1238C81.3306 43.4731 82.7428 46.799 82.7428 51.1016C82.7428 56.4865 81.0534 60.6967 77.6747 63.7323C74.3224 66.7415 69.6502 68.2461 63.6582 68.2461H52.8885ZM75.7346 51.2204C75.7346 48.5808 74.9559 46.6011 73.3985 45.2812C71.8675 43.9614 69.5446 43.3015 66.4298 43.3015H63.6582L60.6094 62.5445H64.3709C67.9344 62.5445 70.7193 61.5414 72.7254 59.5353C74.7315 57.5292 75.7346 54.7575 75.7346 51.2204Z" fill="#E95266"/>
</svg>
