<svg width="26" height="26" viewBox="0 0 26 26" fill="none" xmlns="http://www.w3.org/2000/svg">
<path d="M18.4173 14.2242V18.2293H16.0957V14.4918C16.0957 13.5536 15.7599 12.9134 14.9192 12.9134C14.2779 12.9134 13.8955 13.3445 13.7276 13.7627C13.6669 13.9122 13.6507 14.1202 13.6507 14.3282V18.2293H11.328C11.328 18.2293 11.3594 11.9005 11.328 11.245H13.6507V12.2341L13.6355 12.2569H13.6507V12.2341C13.9594 11.7575 14.5097 11.0804 15.7437 11.0804C17.2712 11.0804 18.4173 12.0792 18.4173 14.2242ZM8.89807 7.87695C8.10398 7.87695 7.58398 8.39912 7.58398 9.08379C7.58398 9.75545 8.08882 10.2917 8.86773 10.2917H8.8829C9.69323 10.2917 10.197 9.75437 10.197 9.08379C10.1818 8.39912 9.69323 7.87695 8.89807 7.87695ZM7.72157 18.2293H10.0442V11.245H7.72157V18.2293Z" fill="white"/>
<path d="M6.49935 4.33366C5.92471 4.33366 5.37361 4.56193 4.96728 4.96826C4.56096 5.37459 4.33268 5.92569 4.33268 6.50033V19.5003C4.33268 20.075 4.56096 20.6261 4.96728 21.0324C5.37361 21.4387 5.92471 21.667 6.49935 21.667H19.4993C20.074 21.667 20.6251 21.4387 21.0314 21.0324C21.4377 20.6261 21.666 20.075 21.666 19.5003V6.50033C21.666 5.92569 21.4377 5.37459 21.0314 4.96826C20.6251 4.56193 20.074 4.33366 19.4993 4.33366H6.49935ZM6.49935 2.16699H19.4993C20.6486 2.16699 21.7508 2.62354 22.5635 3.4362C23.3761 4.24885 23.8327 5.35105 23.8327 6.50033V19.5003C23.8327 20.6496 23.3761 21.7518 22.5635 22.5645C21.7508 23.3771 20.6486 23.8337 19.4993 23.8337H6.49935C5.35008 23.8337 4.24788 23.3771 3.43522 22.5645C2.62256 21.7518 2.16602 20.6496 2.16602 19.5003V6.50033C2.16602 5.35105 2.62256 4.24885 3.43522 3.4362C4.24788 2.62354 5.35008 2.16699 6.49935 2.16699Z" fill="white"/>
</svg>
