<svg width="102" height="102" viewBox="0 0 102 102" fill="none" xmlns="http://www.w3.org/2000/svg">
<path d="M89.3377 54.6075C88.6692 61.8419 85.9541 68.7362 81.5103 74.4838C77.0664 80.2315 71.0776 84.5946 64.2445 87.0628C57.4114 89.531 50.0166 90.002 42.9256 88.4209C35.8345 86.8398 29.3404 83.2718 24.2032 78.1345C19.0659 72.9973 15.498 66.5032 13.9168 59.4121C12.3357 52.3211 12.8068 44.9264 15.2749 38.0933C17.7431 31.2602 22.1062 25.2713 27.8539 20.8275C33.6015 16.3836 40.4958 13.6685 47.7302 13C43.4947 18.7301 41.4566 25.7902 41.9865 32.896C42.5164 40.0019 45.5791 46.6815 50.6177 51.72C55.6562 56.7586 62.3359 59.8213 69.4417 60.3512C76.5476 60.8811 83.6076 58.843 89.3377 54.6075Z" stroke="#D4AF37" stroke-width="4.94932" stroke-linecap="round" stroke-linejoin="round"/>
</svg>
