<svg width="102" height="102" viewBox="0 0 102 102" fill="none" xmlns="http://www.w3.org/2000/svg">
<path d="M72.2659 37.146C72.2659 31.5377 70.038 26.1592 66.0723 22.1935C62.1067 18.2279 56.7281 16 51.1199 16C45.5116 16 40.133 18.2279 36.1674 22.1935C32.2017 26.1592 29.9739 31.5377 29.9739 37.146C29.9739 61.8163 19.4009 68.865 19.4009 68.865H82.8389C82.8389 68.865 72.2659 61.8163 72.2659 37.146Z" stroke="#CD7F32" stroke-width="3.71199" stroke-linecap="round" stroke-linejoin="round"/>
<path d="M57.2171 82.9629C56.5975 84.031 55.7082 84.9177 54.6381 85.534C53.5681 86.1503 52.3549 86.4747 51.12 86.4747C49.8852 86.4747 48.672 86.1503 47.602 85.534C46.5319 84.9177 45.6426 84.031 45.0229 82.9629" stroke="#CD7F32" stroke-width="3.71199" stroke-linecap="round" stroke-linejoin="round"/>
</svg>
