<svg width="1802" height="149" viewBox="0 0 1802 149" fill="none" xmlns="http://www.w3.org/2000/svg">
<path d="M71.0635 9.03752C71.9878 6.19289 76.0122 6.1929 76.9365 9.03752L89.9208 48.9993C90.3342 50.2714 91.5197 51.1327 92.8573 51.1327H134.876C137.867 51.1327 139.11 54.9602 136.69 56.7182L102.697 81.416C101.615 82.2022 101.162 83.5958 101.575 84.868L114.56 124.83C115.484 127.674 112.228 130.04 109.808 128.282L75.8148 103.584C74.7327 102.798 73.2673 102.798 72.1852 103.584L38.1917 128.282C35.7719 130.04 32.5161 127.674 33.4404 124.83L46.4247 84.868C46.8381 83.5958 46.3852 82.2022 45.3031 81.416L11.3096 56.7182C8.88981 54.9602 10.1334 51.1327 13.1244 51.1327H55.1427C56.4803 51.1327 57.6658 50.2714 58.0792 48.9993L71.0635 9.03752Z" fill="#FFAC0A"/>
<path d="M230.165 9.03752C231.089 6.19289 235.114 6.1929 236.038 9.03752L249.022 48.9993C249.436 50.2714 250.621 51.1327 251.959 51.1327H293.977C296.968 51.1327 298.212 54.9602 295.792 56.7182L261.798 81.416C260.716 82.2022 260.263 83.5958 260.677 84.868L273.661 124.83C274.585 127.674 271.33 130.04 268.91 128.282L234.916 103.584C233.834 102.798 232.369 102.798 231.287 103.584L197.293 128.282C194.873 130.04 191.618 127.674 192.542 124.83L205.526 84.868C205.94 83.5958 205.487 82.2022 204.405 81.416L170.411 56.7182C167.991 54.9602 169.235 51.1327 172.226 51.1327H214.244C215.582 51.1327 216.767 50.2714 217.181 48.9993L230.165 9.03752Z" fill="#FFAC0A"/>
<path d="M389.262 9.03752C390.186 6.19289 394.21 6.1929 395.135 9.03752L408.119 48.9993C408.532 50.2714 409.718 51.1327 411.056 51.1327H453.074C456.065 51.1327 457.308 54.9602 454.889 56.7182L420.895 81.416C419.813 82.2022 419.36 83.5958 419.774 84.868L432.758 124.83C433.682 127.674 430.426 130.04 428.007 128.282L394.013 103.584C392.931 102.798 391.466 102.798 390.383 103.584L356.39 128.282C353.97 130.04 350.714 127.674 351.639 124.83L364.623 84.868C365.036 83.5958 364.583 82.2022 363.501 81.416L329.508 56.7182C327.088 54.9602 328.332 51.1327 331.323 51.1327H373.341C374.679 51.1327 375.864 50.2714 376.277 48.9993L389.262 9.03752Z" fill="#FFAC0A"/>
<path d="M548.363 9.03752C549.288 6.19289 553.312 6.1929 554.236 9.03752L567.221 48.9993C567.634 50.2714 568.819 51.1327 570.157 51.1327H612.175C615.166 51.1327 616.41 54.9602 613.99 56.7182L579.997 81.416C578.915 82.2022 578.462 83.5958 578.875 84.868L591.859 124.83C592.784 127.674 589.528 130.04 587.108 128.282L553.115 103.584C552.032 102.798 550.567 102.798 549.485 103.584L515.491 128.282C513.072 130.04 509.816 127.674 510.74 124.83L523.725 84.868C524.138 83.5958 523.685 82.2022 522.603 81.416L488.609 56.7182C486.19 54.9602 487.433 51.1327 490.424 51.1327H532.443C533.78 51.1327 534.966 50.2714 535.379 48.9993L548.363 9.03752Z" fill="#FFAC0A"/>
<path d="M707.465 9.03752C708.389 6.19289 712.414 6.1929 713.338 9.03752L726.322 48.9993C726.736 50.2714 727.921 51.1327 729.259 51.1327H771.277C774.268 51.1327 775.512 54.9602 773.092 56.7182L739.098 81.416C738.016 82.2022 737.563 83.5958 737.977 84.868L750.961 124.83C751.885 127.674 748.629 130.04 746.21 128.282L712.216 103.584C711.134 102.798 709.669 102.798 708.587 103.584L674.593 128.282C672.173 130.04 668.917 127.674 669.842 124.83L682.826 84.868C683.239 83.5958 682.787 82.2022 681.704 81.416L647.711 56.7182C645.291 54.9602 646.535 51.1327 649.526 51.1327H691.544C692.882 51.1327 694.067 50.2714 694.481 48.9993L707.465 9.03752Z" fill="#FFAC0A"/>
<line x1="814" y1="148.014" x2="814" y2="0.000152588" stroke="white" stroke-width="2"/>
<path d="M877.251 117L847.011 33.84H863.091L885.291 102.6L907.371 33.84H922.971L892.731 117H877.251ZM938.479 89.88C938.719 95.96 940.399 100.44 943.519 103.32C946.719 106.12 951.599 107.52 958.159 107.52C964.079 107.52 970.479 106.4 977.359 104.16V114.12C974.639 115.56 971.399 116.68 967.639 117.48C963.959 118.36 960.119 118.8 956.119 118.8C946.039 118.8 938.399 116.08 933.199 110.64C927.999 105.2 925.399 97.28 925.399 86.88C925.399 76.56 927.919 68.52 932.959 62.76C938.079 57 945.199 54.12 954.319 54.12C962.159 54.12 968.159 56.28 972.319 60.6C976.559 64.84 978.679 70.88 978.679 78.72C978.679 82.88 978.319 86.6 977.599 89.88H938.479ZM953.719 64.44C949.399 64.44 945.879 65.88 943.159 68.76C940.439 71.64 938.879 75.52 938.479 80.4H966.199V79.44C966.199 74.56 965.119 70.84 962.959 68.28C960.879 65.72 957.799 64.44 953.719 64.44ZM992.503 117V55.92H1004.26L1006.18 65.04C1009.38 61.52 1012.38 59.04 1015.18 57.6C1017.98 56.16 1021.02 55.44 1024.3 55.44C1025.82 55.44 1027.46 55.56 1029.22 55.8V68.76C1026.98 68.36 1024.7 68.16 1022.38 68.16C1016.46 68.16 1011.22 69.68 1006.66 72.72V117H992.503ZM1039.27 117V55.92H1053.43V117H1039.27ZM1046.35 45.84C1043.71 45.84 1041.63 45.12 1040.11 43.68C1038.59 42.24 1037.83 40.24 1037.83 37.68C1037.83 35.12 1038.59 33.12 1040.11 31.68C1041.63 30.24 1043.71 29.52 1046.35 29.52C1048.99 29.52 1051.07 30.24 1052.59 31.68C1054.11 33.12 1054.87 35.12 1054.87 37.68C1054.87 40.24 1054.11 42.24 1052.59 43.68C1051.07 45.12 1048.99 45.84 1046.35 45.84ZM1075.22 117V66.72H1064.54V57.84L1075.22 56.28V48.12C1075.22 33.72 1081.98 26.52 1095.5 26.52C1100.38 26.52 1104.58 27.28 1108.1 28.8V38.52C1103.54 37.96 1100.5 37.68 1098.98 37.68C1095.54 37.68 1093.06 38.36 1091.54 39.72C1090.1 41 1089.38 43.2 1089.38 46.32V55.92H1129.7V117H1115.54V66.72H1089.38V117H1075.22ZM1122.62 45.84C1119.98 45.84 1117.9 45.12 1116.38 43.68C1114.86 42.24 1114.1 40.24 1114.1 37.68C1114.1 35.12 1114.86 33.12 1116.38 31.68C1117.9 30.24 1119.98 29.52 1122.62 29.52C1125.26 29.52 1127.34 30.24 1128.86 31.68C1130.38 33.12 1131.14 35.12 1131.14 37.68C1131.14 40.24 1130.38 42.24 1128.86 43.68C1127.34 45.12 1125.26 45.84 1122.62 45.84ZM1157.39 89.88C1157.63 95.96 1159.31 100.44 1162.43 103.32C1165.63 106.12 1170.51 107.52 1177.07 107.52C1182.99 107.52 1189.39 106.4 1196.27 104.16V114.12C1193.55 115.56 1190.31 116.68 1186.55 117.48C1182.87 118.36 1179.03 118.8 1175.03 118.8C1164.95 118.8 1157.31 116.08 1152.11 110.64C1146.91 105.2 1144.31 97.28 1144.31 86.88C1144.31 76.56 1146.83 68.52 1151.87 62.76C1156.99 57 1164.11 54.12 1173.23 54.12C1181.07 54.12 1187.07 56.28 1191.23 60.6C1195.47 64.84 1197.59 70.88 1197.59 78.72C1197.59 82.88 1197.23 86.6 1196.51 89.88H1157.39ZM1172.63 64.44C1168.31 64.44 1164.79 65.88 1162.07 68.76C1159.35 71.64 1157.79 75.52 1157.39 80.4H1185.11V79.44C1185.11 74.56 1184.03 70.84 1181.87 68.28C1179.79 65.72 1176.71 64.44 1172.63 64.44ZM1253.89 117L1252.45 111.12C1247.01 115.92 1240.73 118.32 1233.61 118.32C1225.93 118.32 1219.77 115.48 1215.13 109.8C1210.57 104.04 1208.29 96.32 1208.29 86.64C1208.29 80.24 1209.33 74.6 1211.41 69.72C1213.49 64.84 1216.49 61.04 1220.41 58.32C1224.33 55.52 1228.97 54.12 1234.33 54.12C1240.73 54.12 1246.57 56.2 1251.85 60.36V28.2H1266.01V117H1253.89ZM1238.05 107.16C1242.77 107.16 1247.37 105.64 1251.85 102.6V69.6C1247.77 66.72 1243.25 65.28 1238.29 65.28C1232.93 65.28 1228.97 67 1226.41 70.44C1223.93 73.8 1222.69 79 1222.69 86.04C1222.69 100.12 1227.81 107.16 1238.05 107.16ZM1314.65 141.72V55.92H1326.41L1327.73 62.04C1330.53 59.48 1333.61 57.52 1336.97 56.16C1340.41 54.8 1343.97 54.12 1347.65 54.12C1355.25 54.12 1361.29 56.96 1365.77 62.64C1370.33 68.32 1372.61 75.96 1372.61 85.56C1372.61 91.96 1371.57 97.64 1369.49 102.6C1367.41 107.48 1364.41 111.32 1360.49 114.12C1356.57 116.92 1351.97 118.32 1346.69 118.32C1343.33 118.32 1340.09 117.76 1336.97 116.64C1333.85 115.44 1331.13 113.8 1328.81 111.72V141.72H1314.65ZM1343.21 65.28C1338.01 65.28 1333.21 66.8 1328.81 69.84V102.48C1333.29 105.6 1338.05 107.16 1343.09 107.16C1348.21 107.16 1352.01 105.44 1354.49 102C1356.97 98.48 1358.21 93.16 1358.21 86.04C1358.21 79 1356.97 73.8 1354.49 70.44C1352.09 67 1348.33 65.28 1343.21 65.28ZM1427.76 117L1426.32 110.28C1418.8 115.96 1411.32 118.8 1403.88 118.8C1398.2 118.8 1393.8 117.24 1390.68 114.12C1387.64 110.92 1386.12 106.36 1386.12 100.44V55.92H1400.28V96.24C1400.28 100.16 1401.08 103.04 1402.68 104.88C1404.28 106.72 1406.84 107.64 1410.36 107.64C1415.32 107.64 1420.32 106 1425.36 102.72V55.92H1439.52V117H1427.76ZM1456.8 117V55.92H1468.56L1470.48 65.04C1473.68 61.52 1476.68 59.04 1479.48 57.6C1482.28 56.16 1485.32 55.44 1488.6 55.44C1490.12 55.44 1491.76 55.56 1493.52 55.8V68.76C1491.28 68.36 1489 68.16 1486.68 68.16C1480.76 68.16 1475.52 69.68 1470.96 72.72V117H1456.8ZM1546.05 114.6C1541.33 117.08 1535.69 118.32 1529.13 118.32C1519.77 118.32 1512.57 115.6 1507.53 110.16C1502.49 104.72 1499.97 97 1499.97 87C1499.97 76.76 1502.57 68.8 1507.77 63.12C1512.97 57.44 1520.25 54.6 1529.61 54.6C1535.45 54.6 1540.77 55.8 1545.57 58.2V68.16C1540.21 66.64 1535.65 65.88 1531.89 65.88C1525.89 65.88 1521.45 67.52 1518.57 70.8C1515.77 74 1514.37 79 1514.37 85.8V87.36C1514.37 94.08 1515.77 99.04 1518.57 102.24C1521.45 105.44 1525.89 107.04 1531.89 107.04C1536.21 107.04 1540.93 106.24 1546.05 104.64V114.6ZM1599.19 117V76.56C1599.19 72.64 1598.39 69.8 1596.79 68.04C1595.19 66.2 1592.63 65.28 1589.11 65.28C1583.83 65.28 1578.43 67.04 1572.91 70.56V117H1558.75V28.2H1572.91V61.92C1580.35 56.72 1587.87 54.12 1595.47 54.12C1601.31 54.12 1605.75 55.68 1608.79 58.8C1611.83 61.84 1613.35 66.28 1613.35 72.12V117H1599.19ZM1665.76 117L1664.68 111.12C1661.88 113.52 1658.76 115.4 1655.32 116.76C1651.96 118.12 1648.6 118.8 1645.24 118.8C1639.64 118.8 1635.08 117.12 1631.56 113.76C1628.12 110.4 1626.4 106.04 1626.4 100.68C1626.4 94.76 1628.52 90.04 1632.76 86.52C1637.08 83 1642.84 81.24 1650.04 81.24C1654.28 81.24 1658.92 81.84 1663.96 83.04V75.96C1663.96 71.88 1663.08 69.04 1661.32 67.44C1659.56 65.84 1656.48 65.04 1652.08 65.04C1645.84 65.04 1638.68 66.36 1630.6 69V59.04C1633.56 57.52 1637.16 56.32 1641.4 55.44C1645.72 54.56 1650.04 54.12 1654.36 54.12C1662.2 54.12 1667.96 55.72 1671.64 58.92C1675.4 62.12 1677.28 67.12 1677.28 73.92V117H1665.76ZM1649.2 108.72C1651.52 108.72 1653.96 108.24 1656.52 107.28C1659.08 106.24 1661.56 104.8 1663.96 102.96V91.44C1659.72 90.56 1655.96 90.12 1652.68 90.12C1644.36 90.12 1640.2 93.36 1640.2 99.84C1640.2 102.64 1641 104.84 1642.6 106.44C1644.2 107.96 1646.4 108.72 1649.2 108.72ZM1721.82 100.44C1721.82 98.68 1721.26 97.28 1720.14 96.24C1719.02 95.12 1716.94 94 1713.9 92.88L1703.94 89.04C1694.98 85.6 1690.5 80 1690.5 72.24C1690.5 66.64 1692.58 62.24 1696.74 59.04C1700.9 55.76 1706.46 54.12 1713.42 54.12C1720.06 54.12 1726.06 55.4 1731.42 57.96V67.92C1725.18 65.92 1719.46 64.92 1714.26 64.92C1710.58 64.92 1707.86 65.48 1706.1 66.6C1704.42 67.64 1703.58 69.32 1703.58 71.64C1703.58 73.4 1704.18 74.84 1705.38 75.96C1706.66 77 1708.9 78.16 1712.1 79.44L1721.34 83.04C1726.14 84.88 1729.58 87.08 1731.66 89.64C1733.82 92.2 1734.9 95.44 1734.9 99.36C1734.9 105.36 1732.74 110.12 1728.42 113.64C1724.1 117.08 1718.1 118.8 1710.42 118.8C1706.66 118.8 1702.98 118.4 1699.38 117.6C1695.78 116.8 1692.62 115.68 1689.9 114.24V104.28C1697.58 106.76 1704.38 108 1710.3 108C1714.3 108 1717.22 107.4 1719.06 106.2C1720.9 104.92 1721.82 103 1721.82 100.44ZM1756.56 89.88C1756.8 95.96 1758.48 100.44 1761.6 103.32C1764.8 106.12 1769.68 107.52 1776.24 107.52C1782.16 107.52 1788.56 106.4 1795.44 104.16V114.12C1792.72 115.56 1789.48 116.68 1785.72 117.48C1782.04 118.36 1778.2 118.8 1774.2 118.8C1764.12 118.8 1756.48 116.08 1751.28 110.64C1746.08 105.2 1743.48 97.28 1743.48 86.88C1743.48 76.56 1746 68.52 1751.04 62.76C1756.16 57 1763.28 54.12 1772.4 54.12C1780.24 54.12 1786.24 56.28 1790.4 60.6C1794.64 64.84 1796.76 70.88 1796.76 78.72C1796.76 82.88 1796.4 86.6 1795.68 89.88H1756.56ZM1771.8 64.44C1767.48 64.44 1763.96 65.88 1761.24 68.76C1758.52 71.64 1756.96 75.52 1756.56 80.4H1784.28V79.44C1784.28 74.56 1783.2 70.84 1781.04 68.28C1778.96 65.72 1775.88 64.44 1771.8 64.44Z" fill="#C45601"/>
</svg>
